HIERARCHY
ROOT Hips
{
	OFFSET 0.000000 0.000000 0.000000
	CHANNELS 6 Xposition Yposition Zposition Zrotation Yrotation Xrotation 
	JOINT LeftUpLeg_virtual
	{
		OFFSET 0.000000 0.000000 0.000000
		CHANNELS 3 Zrotation Yrotation Xrotation
		JOINT LeftUpLeg
		{
			OFFSET 8.479694 -4.795517 -0.379053
			CHANNELS 3 Zrotation Yrotation Xrotation
			JOINT LeftLeg
			{
				OFFSET 0.485052 -32.551468 0.112863
				CHANNELS 3 Zrotation Yrotation Xrotation
				JOINT LeftFoot
				{
					OFFSET 0.438033 -32.635670 -3.012641
					CHANNELS 3 Zrotation Yrotation Xrotation
					JOINT LeftToeBase
					{
						OFFSET 0.970169 -13.225353 11.864223
						CHANNELS 3 Zrotation Yrotation Xrotation
						End Site
						{
							OFFSET 0.000000 0.000000 0.000000
						}
					}
				}
			}
		}
	}
	JOINT RightUpLeg_virtual
	{
		OFFSET 0.000000 0.000000 0.000000
		CHANNELS 3 Zrotation Yrotation Xrotation
		JOINT RightUpLeg
		{
			OFFSET -8.479694 -4.795517 -0.379053
			CHANNELS 3 Zrotation Yrotation Xrotation
			JOINT RightLeg
			{
				OFFSET -0.484100 -32.551483 0.112903
				CHANNELS 3 Zrotation Yrotation Xrotation
				JOINT RightFoot
				{
					OFFSET -0.438985 -32.635651 -3.012681
					CHANNELS 3 Zrotation Yrotation Xrotation
					JOINT RightToeBase
					{
						OFFSET -0.970169 -13.225354 11.864223
						CHANNELS 3 Zrotation Yrotation Xrotation
						End Site
						{
							OFFSET 0.000000 0.000000 0.000000
						}
					}
				}
			}
		}
	}
	JOINT Spine_virtual
	{
		OFFSET 0.000000 0.000000 0.000000
		CHANNELS 3 Zrotation Yrotation Xrotation
		JOINT Spine
		{
			OFFSET 0.000000 7.722015 1.166203
			CHANNELS 3 Zrotation Yrotation Xrotation
			JOINT Spine1
			{
				OFFSET 0.000000 12.024086 0.248766
				CHANNELS 3 Zrotation Yrotation Xrotation
				JOINT Spine2
				{
					OFFSET -0.000000 11.503036 -0.491240
					CHANNELS 3 Zrotation Yrotation Xrotation
					JOINT Neck_virtual
					{
						OFFSET 0.000000 0.000000 0.000000
						CHANNELS 3 Zrotation Yrotation Xrotation
						JOINT Neck
						{
							OFFSET 0.000000 18.430687 -3.123054
							CHANNELS 3 Zrotation Yrotation Xrotation
							JOINT Head
							{
								OFFSET -0.000000 9.051071 1.034021
								CHANNELS 3 Zrotation Yrotation Xrotation
								End Site
								{
									OFFSET 0.000000 0.000000 0.000000
								}
							}
						}
					}
					JOINT LeftShoulder_virtual
					{
						OFFSET 0.000000 0.000000 0.000000
						CHANNELS 3 Zrotation Yrotation Xrotation
						JOINT LeftShoulder
						{
							OFFSET 6.197824 13.665230 -4.064723
							CHANNELS 3 Zrotation Yrotation Xrotation
							JOINT LeftArm
							{
								OFFSET 7.778132 -0.187073 -1.709282
								CHANNELS 3 Zrotation Yrotation Xrotation
								JOINT LeftForeArm
								{
									OFFSET 21.954697 0.000000 -2.041093
									CHANNELS 3 Zrotation Yrotation Xrotation
									JOINT LeftHand
									{
										OFFSET 22.992908 0.000000 -0.870901
										CHANNELS 3 Zrotation Yrotation Xrotation
										End Site
										{
											OFFSET 0.000000 0.000000 0.000000
										}
									}
								}
							}
						}
					}
					JOINT RightShoulder_virtual
					{
						OFFSET 0.000000 0.000000 0.000000
						CHANNELS 3 Zrotation Yrotation Xrotation
						JOINT RightShoulder
						{
							OFFSET -6.197824 13.665230 -4.064723
							CHANNELS 3 Zrotation Yrotation Xrotation
							JOINT RightArm
							{
								OFFSET -7.778132 -0.187073 -1.709282
								CHANNELS 3 Zrotation Yrotation Xrotation
								JOINT RightForeArm
								{
									OFFSET -21.954697 0.000000 -2.041093
									CHANNELS 3 Zrotation Yrotation Xrotation
									JOINT RightHand
									{
										OFFSET -22.992908 0.000000 -0.870901
										CHANNELS 3 Zrotation Yrotation Xrotation
										End Site
										{
											OFFSET 0.000000 0.000000 0.000000
										}
									}
								}
							}
						}
					}
				}
			}
		}
	}
}
MOTION
Frames: 11
Frame Time: 0.033333
-4.235802 23.832230 46.931797 -179.776521 2.754379 -179.816136 22.396561 -3.678237 -50.774001 -1.164882 13.411983 -103.181011 9.598795 -6.918919 122.584356 -6.494625 -21.233381 1.568001 0.000000 0.000000 0.000000 8.443638 4.972061 -47.975122 2.830521 3.330251 -86.978518 -3.586835 0.784075 76.552897 8.501195 15.334249 2.633021 0.000000 0.000000 0.000000 10.126578 2.960243 -27.503679 -2.585423 -3.271172 1.673276 -4.501808 -0.938734 14.739922 -0.037475 -0.016418 0.008386 -4.980869 -0.955465 18.783333 0.900497 -3.855561 4.217579 0.000000 0.000000 0.000000 -0.732558 -0.532662 13.127533 -7.963064 -1.375768 7.673648 -29.423126 -4.700391 0.430780 0.565203 -53.392060 16.696447 0.000000 0.000000 0.000000 -7.797504 1.394342 12.181633 21.102021 10.695852 4.070840 51.844623 -5.642566 13.678892 -10.029971 55.052271 -11.017378 0.000000 0.000000 0.000000 
-4.039888 23.856304 46.848679 -179.772423 2.498723 -179.928438 22.555832 -3.602734 -50.381849 -1.111620 13.491625 -103.177978 9.730851 -6.776646 122.627031 -6.882481 -21.530454 1.305659 0.000000 0.000000 0.000000 8.661246 5.013892 -47.421959 3.402692 3.324566 -88.220260 -3.685835 0.649442 79.007769 8.307599 15.484053 2.604455 0.000000 0.000000 0.000000 10.118662 2.985521 -26.924061 -2.354673 -3.233533 1.917521 -4.372580 -1.000313 14.788070 -0.013433 -0.021403 0.032594 -4.889525 -0.976001 18.621674 0.789885 -4.001708 4.140926 0.000000 0.000000 0.000000 -0.668982 -0.581909 12.985453 -7.654507 -1.266374 7.749746 -30.089681 -4.675003 2.743641 0.432809 -55.111335 16.739655 0.000000 0.000000 0.000000 -7.745685 1.354528 12.065028 20.522794 10.862414 4.238829 52.566919 -5.491469 14.758961 -10.244982 55.681457 -11.366978 0.000000 0.000000 0.000000 
-3.882020 23.892982 46.775082 -179.937195 2.441841 -179.932195 22.535306 -3.558383 -49.871419 -1.017475 13.664215 -103.445756 9.816728 -6.740912 122.667083 -7.201066 -21.819984 0.875239 0.000000 0.000000 0.000000 8.692416 5.095300 -46.795829 3.788420 3.422451 -89.599289 -4.015824 0.365892 81.988081 8.297899 15.642740 2.490141 0.000000 0.000000 0.000000 10.063232 3.029060 -26.332481 -2.327490 -3.323950 2.152944 -4.265130 -0.989238 14.807965 -0.020341 0.002077 0.027316 -4.715283 -1.024023 18.517543 0.658307 -3.810930 4.005585 0.000000 0.000000 0.000000 -0.480354 -0.618536 12.840158 -7.196429 -1.257087 7.946625 -30.565902 -4.796743 5.488548 0.326643 -56.751618 16.694502 0.000000 0.000000 0.000000 -7.552413 1.361816 12.032112 19.988351 11.212731 4.448658 53.080815 -5.088901 15.742179 -10.418735 56.067107 -11.681515 0.000000 0.000000 0.000000 
-3.789768 23.922060 46.675140 -179.837406 2.644754 -179.943847 22.638829 -3.426352 -49.327476 -0.820600 13.655576 -103.603943 9.835009 -6.769606 122.758512 -7.220767 -21.979404 0.208560 0.000000 0.000000 0.000000 8.949371 5.095530 -45.933985 4.205187 3.465383 -91.213536 -4.190138 0.280722 85.583479 7.989918 15.846973 2.046495 0.000000 0.000000 0.000000 10.121962 3.028293 -25.695450 -2.038511 -3.177174 2.475578 -4.156835 -1.088555 14.902117 -0.006964 -0.023310 -0.038132 -4.633661 -1.105219 18.531225 0.534754 -3.789502 3.849665 0.000000 0.000000 0.000000 -0.408349 -0.733922 12.840484 -6.604472 -1.402101 8.024140 -30.835657 -5.032591 8.676645 0.140738 -58.252108 16.779208 0.000000 0.000000 0.000000 -7.478354 1.287889 12.074795 19.456550 11.572921 4.498098 53.373550 -4.719198 16.419307 -10.558198 56.143865 -11.982324 0.000000 0.000000 0.000000 
-3.783134 23.908562 46.623627 -179.918575 2.764445 -179.942058 22.625963 -3.604850 -48.926271 -0.543622 13.749619 -103.776357 9.797515 -6.728613 122.896468 -7.072830 -22.177144 -0.366994 0.000000 0.000000 0.000000 9.005792 4.876987 -45.085423 4.452435 3.546355 -93.070698 -4.295665 0.295617 89.720245 7.565381 16.107355 1.288676 0.000000 0.000000 0.000000 10.043050 2.850626 -25.049311 -1.815281 -3.270962 2.778271 -4.054270 -1.079452 14.992011 -0.048665 -0.004089 0.043046 -4.521459 -1.105232 18.536314 0.413462 -3.815090 3.672237 0.000000 0.000000 0.000000 -0.343825 -0.776209 12.855658 -6.037898 -1.670788 8.139799 -30.952078 -5.387423 11.729836 -0.222278 -59.458709 17.002426 0.000000 0.000000 0.000000 -7.369375 1.256898 12.038407 19.004960 11.919894 4.485475 53.412984 -4.357468 16.664389 -10.306301 55.968168 -11.955990 0.000000 0.000000 0.000000 
-3.848972 23.838507 46.612370 179.906008 2.984735 179.872021 22.556201 -3.699036 -48.346063 -0.509327 13.818449 -104.061504 9.869801 -6.801341 122.913871 -7.232667 -22.151359 -0.800386 0.000000 0.000000 0.000000 8.924250 4.768305 -44.011717 4.557576 3.657488 -95.065483 -4.358734 0.336784 94.222999 7.076861 16.488650 0.374363 0.000000 0.000000 0.000000 9.989841 2.814276 -24.238740 -1.623974 -3.480687 3.115812 -4.148084 -1.024188 15.278240 0.004189 0.016032 0.006965 -4.446969 -1.151125 18.591331 0.175997 -3.753876 3.529956 0.000000 0.000000 0.000000 -0.274914 -0.802960 12.904079 -5.587445 -2.028362 8.396212 -30.954865 -5.831952 14.388565 -0.181599 -60.288659 16.795792 0.000000 0.000000 0.000000 -7.294821 1.213204 12.144033 18.598007 12.291585 4.415060 53.137448 -3.931306 16.774834 -10.196478 55.786560 -12.073358 0.000000 0.000000 0.000000 
-3.928236 23.723982 46.636124 179.957767 3.144786 179.887061 22.721131 -3.687820 -47.864248 -0.395368 14.036724 -104.369266 10.122507 -6.678915 122.817730 -7.383516 -22.131264 -1.215607 0.000000 0.000000 0.000000 9.003601 4.799083 -43.264167 4.569957 3.860458 -96.942384 -4.342472 0.394946 98.821615 6.644577 16.822259 -0.573833 0.000000 0.000000 0.000000 10.095298 2.812718 -23.468288 -1.281733 -3.528530 3.310733 -4.175745 -1.075258 15.536163 0.018967 0.006717 0.034475 -4.540752 -1.178974 18.789002 -0.056915 -3.725140 3.402168 0.000000 0.000000 0.000000 -0.376968 -0.841403 13.060407 -5.238230 -2.398316 8.627499 -30.780357 -6.349198 15.990683 -0.649267 -60.900419 17.072807 0.000000 0.000000 0.000000 -7.350088 1.182234 12.315757 18.354660 12.651367 4.334578 52.503125 -3.479598 16.805419 -10.003399 55.912099 -12.127031 0.000000 0.000000 0.000000 
-3.997737 23.598074 46.724911 179.850082 3.268860 179.957043 22.723720 -3.551987 -47.308547 -0.316591 14.385837 -104.663497 10.407173 -6.245706 122.576651 -7.396463 -22.176221 -1.635061 0.000000 0.000000 0.000000 8.910900 5.244734 -42.460363 4.582764 3.931710 -98.805339 -4.282158 0.478837 103.251273 6.117941 17.400832 -1.458744 0.000000 0.000000 0.000000 10.116696 2.959057 -22.719207 -0.997204 -3.616554 3.389994 -4.232785 -1.056393 15.803550 0.020727 0.035129 -0.021345 -4.616326 -1.238939 19.109372 -0.337270 -3.708642 3.253757 0.000000 0.000000 0.000000 -0.458837 -0.822276 13.371665 -4.962239 -2.820986 8.890833 -30.379490 -7.052235 16.700352 -0.803912 -61.314793 16.988139 0.000000 0.000000 0.000000 -7.400686 1.180797 12.576887 18.168626 12.990315 4.176686 51.544699 -2.991547 16.849790 -10.009385 56.548338 -12.298842 0.000000 0.000000 0.000000 
-4.028383 23.496460 46.757633 179.824988 3.289455 179.817065 22.799854 -3.531534 -46.785969 -0.241769 14.578955 -104.700783 10.489512 -5.972618 122.433176 -7.632696 -22.379704 -2.126367 0.000000 0.000000 0.000000 9.002749 5.429062 -41.663194 4.624278 4.110457 -100.328253 -4.142426 0.555764 107.319095 5.741073 17.851357 -2.153722 0.000000 0.000000 0.000000 10.143590 3.024596 -22.042287 -0.701811 -3.719938 3.534640 -4.292211 -1.091916 16.128232 0.060570 0.004129 -0.018811 -4.723343 -1.215778 19.409372 -0.661472 -3.677264 3.137284 0.000000 0.000000 0.000000 -0.544631 -0.848653 13.557765 -4.781075 -3.235461 9.159430 -29.660684 -7.935987 16.390644 -1.270921 -61.790966 17.174371 0.000000 0.000000 0.000000 -7.471602 1.197760 12.806195 18.172523 13.361773 4.171774 50.182855 -2.185630 16.642669 -9.988038 57.731341 -12.477815 0.000000 0.000000 0.000000 
-4.013326 23.451429 46.709759 179.737084 3.424972 179.725158 22.760171 -3.482522 -46.409944 -0.358010 14.650879 -104.759235 10.511353 -6.144248 122.294646 -8.201872 -22.342532 -2.652653 0.000000 0.000000 0.000000 9.036742 5.439777 -40.965378 4.801932 4.138361 -101.598565 -3.991800 0.588551 110.897192 5.423653 18.188145 -2.793137 0.000000 0.000000 0.000000 10.019323 3.024905 -21.663743 -0.447468 -3.728825 3.678103 -4.331631 -1.078383 16.445111 -0.012730 0.016561 -0.001076 -4.678083 -1.238550 19.768092 -0.974600 -3.638090 2.990483 0.000000 0.000000 0.000000 -0.509427 -0.862955 13.875026 -4.582125 -3.850333 9.446369 -28.616056 -9.445925 15.319443 -1.561847 -62.251068 17.101564 0.000000 0.000000 0.000000 -7.386657 1.171872 13.062921 18.342418 13.846001 4.157537 48.419768 -0.807623 16.026103 -10.236626 59.267655 -12.878651 0.000000 0.000000 0.000000 
-3.991230 23.447111 46.558075 179.684805 3.422672 179.646543 22.561218 -3.235007 -46.048357 -0.379174 14.291221 -104.776639 10.606781 -6.132017 122.361610 -8.081858 -22.437264 -3.459935 0.000000 0.000000 0.000000 9.103587 5.086548 -40.446253 4.977118 4.055836 -102.636952 -3.835801 0.669619 114.079069 5.097367 18.407262 -3.502381 0.000000 0.000000 0.000000 9.731705 2.807503 -21.548455 -0.290350 -3.800296 3.864708 -4.335661 -1.094118 16.772791 0.004812 -0.004363 -0.055593 -4.627713 -1.313271 20.220270 -1.222255 -3.589972 2.761656 0.000000 0.000000 0.000000 -0.469151 -0.985833 14.164757 -4.367062 -4.635463 9.585321 -27.199996 -11.651058 13.485022 -2.407830 -62.727672 17.575941 0.000000 0.000000 0.000000 -7.279657 1.108482 13.360873 18.613369 14.452901 4.159533 46.255533 1.470736 14.573979 -10.471467 60.732874 -13.270802 0.000000 0.000000 0.000000 
